# xmcd CD database file
#
# Track frame offsets:
#	150
#	43199
#	78330
#	102495
#	145136
#	170723
#	203971
#	244648
#	249681
#
# Disc length: 3921 seconds
#
# Revision: 0
# Processed by: cddbd v1.5.2PL0 Copyright (c) Steve Scherf et al.
# Submitted via: CDex 1.70beta2
#
DISCID=7f0f4f09
DTITLE=The Abshalom Ben Shlomo Experience - 10,000 Recollections
DYEAR=1997
DGENRE=Jazz
TTITLE0=Message of the Ascended
TTITLE1=A Call to Prayer
TTITLE2=I Follow the Son 
TTITLE3=Unleashing of the Four Winds
TTITLE4=Land of the Righteous and Free
TTITLE5=I See You
TTITLE6=Israelite Son
TTITLE7=10,000 Recollections
TTITLE8=The Experience
EXTD=YEAR: 1997
EXTT0=
EXTT1=
EXTT2=
EXTT3=
EXTT4=
EXTT5=
EXTT6=
EXTT7=
EXTT8=
PLAYORDER=
